#!OML:ASF F:\VICON\USERDATA\INSTALL\rory3\rory3.ASF
:FULLY-SPECIFIED
:DEGREES
307
root 3.62105 18.1512 9.84455 -184.991 47.6194 174.378
lowerback 11.1801 1.3663 -2.89536
upperback 2.31193 1.60803 0.0121044
thorax -3.92669 0.883285 1.40819
lowerneck -14.4928 6.40253 -6.00308
upperneck 45.7108 17.4495 2.91792
head 19.2768 7.67092 6.28342
rclavicle -5.14852e-014 -1.07344e-014
rhumerus -41.9058 -17.9569 -66.1523
rradius 29.4913
rwrist 4.33685
rhand -16.1834 6.99517
rfingers 7.12502
rthumb 10.0232 -22.7462
lclavicle -5.14852e-014 -1.07344e-014
lhumerus -25.4202 0.833701 83.2048
lradius 44.9623
lwrist -0.382824
lhand -17.6486 25.8076
lfingers 7.12502
lthumb 8.6095 55.6121
rfemur -22.5064 -3.8557 11.2453
rtibia 23.8346
rfoot -4.75189 0.55342
rtoes -27.532
lfemur 2.03652 -9.29243 -30.0483
ltibia 26.5599
lfoot 2.48611 -21.9123
ltoes 11.5371
308
root 3.51899 18.1718 9.89031 -184.698 48.0397 174.859
lowerback 11.2406 1.35314 -2.42594
upperback 2.28026 1.64252 0.0559949
thorax -3.98388 0.895197 1.18294
lowerneck -14.2518 6.30465 -5.95234
upperneck 45.6433 17.2787 2.79072
head 19.2102 7.61034 6.15895
rclavicle -1.87355e-014 -7.95139e-016
rhumerus -41.9699 -17.7573 -66.4996
rradius 29.5555
rwrist 4.07963
rhand -16.3593 6.82624
rfingers 7.12502
rthumb 9.8535 -22.9232
lclavicle -1.87355e-014 -7.95139e-016
lhumerus -25.6646 0.418489 83.1269
lradius 45.1252
lwrist -0.35048
lhand -17.6579 25.3176
lfingers 7.12502
lthumb 8.60051 55.1224
rfemur -22.5393 -3.99287 11.6148
rtibia 24.6922
rfoot -5.32181 -0.0049003
rtoes -26.7843
lfemur 1.77249 -9.41346 -29.8468
ltibia 26.4439
lfoot 2.58279 -21.393
ltoes 11.1514
309
root 3.42105 18.194 9.92669 -184.565 48.5214 175.105
lowerback 11.0711 1.39587 -2.09397
upperback 2.33389 1.74387 0.0832746
thorax -3.82993 0.940158 1.01466
lowerneck -14.1558 6.12257 -6.16582
upperneck 45.7103 16.97 2.95392
head 19.1954 7.47962 6.21183
rclavicle -2.96189e-014 0
rhumerus -41.9483 -17.4379 -66.8658
rradius 29.6459
rwrist 3.78156
rhand -16.2257 6.8506
rfingers 7.12502
rthumb 9.98239 -22.8927
lclavicle -2.96189e-014 0
lhumerus -25.8325 0.0661006 83.1606
lradius 45.2194
lwrist -0.334818
lhand -17.8938 24.8536
lfingers 7.12502
lthumb 8.37282 54.6677
rfemur -22.5419 -4.34973 11.8521
rtibia 25.6594
rfoot -5.82288 -0.376535
rtoes -25.7452
lfemur 1.50266 -9.49495 -29.8349
ltibia 26.4086
lfoot 2.65996 -20.8154
ltoes 11.2779
310
root 3.32765 18.2089 9.95917 -185.026 49.0555 174.669
lowerback 10.9432 1.49035 -2.24157
upperback 2.41609 1.85577 -0.0036905
thorax -3.67901 0.996166 0.995777
lowerneck -14.1907 5.94898 -6.35393
upperneck 45.8247 16.6958 3.10675
head 19.2525 7.3518 6.28336
rclavicle -5.51627e-015 1.19271e-015
rhumerus -41.8276 -17.3601 -67.133
rradius 29.5415
rwrist 4.09827
rhand -16.0922 6.94169
rfingers 7.12502
rthumb 10.1113 -22.7954
lclavicle -5.51627e-015 1.19271e-015
lhumerus -26.0095 -0.129397 83.1046
lradius 45.2742
lwrist -0.425503
lhand -18.048 24.7235
lfingers 7.12502
lthumb 8.22403 54.5435
rfemur -22.4718 -4.71558 11.5963
rtibia 26.7672
rfoot -6.33546 -0.882461
rtoes -24.7003
lfemur 1.32039 -9.37508 -30.3163
ltibia 26.4185
lfoot 2.66241 -20.373
ltoes 11.3356
311
root 3.22829 18.2258 10.0076 -185.03 49.6459 174.755
lowerback 10.9974 1.56236 -2.15378
upperback 2.41916 1.96058 0.0227158
thorax -3.70756 1.04738 0.957596
lowerneck -14.2899 5.83717 -6.43972
upperneck 45.9251 16.5339 3.1599
head 19.3412 7.26424 6.31839
rclavicle -6.31141e-015 -1.59028e-014
rhumerus -41.7037 -17.2003 -67.4522
rradius 29.4875
rwrist 4.39906
rhand -16.0446 7.01253
rfingers 7.12502
rthumb 10.1571 -22.7223
lclavicle -6.31141e-015 -1.59028e-014
lhumerus -26.2165 -0.209402 83.0104
lradius 45.3012
lwrist -0.633415
lhand -18.44 24.6476
lfingers 7.12502
lthumb 7.84564 54.482
rfemur -22.6127 -4.7881 11.7526
rtibia 28.1011
rfoot -6.70789 -1.65214
rtoes -23.3038
lfemur 0.98725 -9.21908 -30.3208
ltibia 26.3624
lfoot 2.62727 -20.1333
ltoes 10.4226
312
root 3.12731 18.2487 10.0599 -184.844 50.2461 175.015
lowerback 11.1066 1.65789 -2.02286
upperback 2.35778 2.10001 0.136838
thorax -3.83642 1.11527 0.978474
lowerneck -14.268 5.72965 -6.59544
upperneck 45.9687 16.4133 3.15372
head 19.3603 7.18786 6.32434
rclavicle -1.5371e-013 2.8625e-014
rhumerus -41.6516 -16.7451 -67.7546
rradius 29.63
rwrist 4.41499
rhand -15.7364 7.13391
rfingers 7.12502
rthumb 10.4545 -22.5861
lclavicle -1.5371e-013 2.8625e-014
lhumerus -26.523 -0.247692 83.0375
lradius 45.2801
lwrist -0.775954
lhand -18.5743 24.6287
lfingers 7.12502
lthumb 7.71608 54.4679
rfemur -22.8548 -4.85222 12.0674
rtibia 29.5657
rfoot -6.98182 -2.45846
rtoes -22.7241
lfemur 0.563114 -9.21681 -30.1925
ltibia 26.3135
lfoot 2.66478 -19.838
ltoes 9.28696
313
root 3.03713 18.2635 10.0931 -185.391 50.7679 174.511
lowerback 11.0599 1.79816 -2.27204
upperback 2.41254 2.25896 0.0833208
thorax -3.76581 1.1962 1.04232
lowerneck -14.1855 5.5853 -6.70546
upperneck 45.9821 16.2315 3.10201
head 19.3616 7.09515 6.28446
rclavicle 4.55217e-014 5.56597e-015
rhumerus -41.5855 -16.6833 -67.8837
rradius 29.6148
rwrist 4.95025
rhand -15.4392 7.19991
rfingers 7.12502
rthumb 10.7411 -22.5055
lclavicle 4.55217e-014 5.56597e-015
lhumerus -26.7994 -0.276905 83.0985
lradius 45.1958
lwrist -0.902624
lhand -18.6374 24.7393
lfingers 7.12502
lthumb 7.6551 54.5807
rfemur -22.8208 -5.30788 11.8448
rtibia 31.0426
rfoot -7.13389 -2.83248
rtoes -23.0795
lfemur 0.356662 -9.23128 -30.707
ltibia 26.3762
lfoot 2.61826 -19.3022
ltoes 7.77047
314
root 2.9465 18.2735 10.125 -185.639 51.2788 174.397
lowerback 10.994 1.88877 -2.21029
upperback 2.46482 2.38928 0.069896
thorax -3.67672 1.25965 0.978231
lowerneck -14.0006 5.49597 -6.77275
upperneck 45.8838 16.0792 3.02069
head 19.266 7.02803 6.20173
rclavicle -2.73826e-014 -1.19271e-015
rhumerus -41.4608 -16.4323 -68.2047
rradius 29.619
rwrist 5.37217
rhand -15.4219 7.01833
rfingers 7.12502
rthumb 10.7578 -22.6862
lclavicle -2.73826e-014 -1.19271e-015
lhumerus -27.1754 -0.309265 83.1322
lradius 45.2076
lwrist -0.955213
lhand -18.7297 24.6931
lfingers 7.12502
lthumb 7.56604 54.5378
rfemur -22.7814 -5.90141 11.9206
rtibia 32.5576
rfoot -7.25584 -3.03259
rtoes -23.6414
lfemur 0.141273 -9.32579 -30.9484
ltibia 26.4713
lfoot 2.72701 -18.6983
ltoes 7.0356
315
root 2.85137 18.2877 10.1648 -185.593 51.8139 174.534
lowerback 11.0061 1.94574 -2.04219
upperback 2.42476 2.48183 0.113818
thorax -3.72364 1.30334 0.915049
lowerneck -13.8631 5.4177 -6.79596
upperneck 45.8707 16.0059 2.87997
head 19.2512 6.98311 6.11699
rclavicle 1.16786e-014 -1.63003e-014
rhumerus -41.3999 -15.7398 -68.7141
rradius 29.8543
rwrist 5.35839
rhand -15.4776 6.89034
rfingers 7.12502
rthumb 10.704 -22.817
lclavicle 1.16786e-014 -1.63003e-014
lhumerus -27.5963 -0.175152 83.1024
lradius 45.1274
lwrist -0.941292
lhand -18.6877 24.8825
lfingers 7.12502
lthumb 7.60656 54.7258
rfemur -22.8297 -6.32903 12.1286
rtibia 34.0966
rfoot -7.57305 -3.2627
rtoes -22.5292
lfemur -0.255622 -9.34756 -30.9403
ltibia 26.5764
lfoot 2.99056 -18.2067
ltoes 6.94897
